<?xml version="1.0" encoding="UTF-8" ?>
<!DOCTYPE svg PUBLIC "-//W3C//DTD SVG 1.1//EN" "http://www.w3.org/Graphics/SVG/1.1/DTD/svg11.dtd">
<svg width="64pt" height="64pt" viewBox="0 0 64 64" version="1.1" xmlns="http://www.w3.org/2000/svg">
<g id="#22272eff">
<path fill="#22272e" opacity="1.00" d=" M 32.23 0.00 L 36.52 0.00 C 31.78 4.42 27.41 9.73 26.24 16.30 C 23.71 27.58 30.09 39.89 40.61 44.55 C 47.24 47.85 54.90 47.18 61.85 45.37 C 56.16 55.81 45.50 63.70 33.34 64.00 L 30.16 64.00 C 14.57 63.18 1.01 49.92 0.00 34.32 L 0.00 30.02 C 0.68 20.64 5.52 11.61 13.24 6.17 C 18.72 2.14 25.50 0.30 32.23 0.00 M 7.35 19.32 C 2.68 28.18 3.39 39.58 9.22 47.74 C 14.47 55.41 23.76 60.08 33.05 59.69 C 40.26 59.56 47.16 56.30 52.29 51.30 C 40.04 51.53 28.03 43.88 23.59 32.38 C 19.90 23.47 21.15 12.96 26.36 4.92 C 18.33 6.68 11.08 11.94 7.35 19.32 Z" />
</g>
</svg>
