<svg width="18" height="18" viewBox="0 0 18 18" fill="none" xmlns="http://www.w3.org/2000/svg">
<path d="M9 1V1.88889ZM9 16.1111V17ZM1.88889 9H1ZM3.94588 3.94588L3.22222 3.22222ZM14.0541 3.94588L14.7778 3.22222ZM3.94588 14.0578L3.22222 14.7779ZM14.0541 14.0578L14.7778 14.7779ZM17 9H16.1111ZM12.5556 9C12.5556 10.9636 10.9636 12.5556 9 12.5556C7.03632 12.5556 5.44444 10.9636 5.44444 9C5.44444 7.03632 7.03632 5.44444 9 5.44444C10.9636 5.44444 12.5556 7.03632 12.5556 9Z" fill="white"/>
<path d="M9 1V1.88889M9 16.1111V17M1.88889 9H1M3.94588 3.94588L3.22222 3.22222M14.0541 3.94588L14.7778 3.22222M3.94588 14.0578L3.22222 14.7779M14.0541 14.0578L14.7778 14.7779M17 9H16.1111M12.5556 9C12.5556 10.9636 10.9636 12.5556 9 12.5556C7.03632 12.5556 5.44444 10.9636 5.44444 9C5.44444 7.03632 7.03632 5.44444 9 5.44444C10.9636 5.44444 12.5556 7.03632 12.5556 9Z" stroke="white" stroke-width="2" stroke-linecap="round" stroke-linejoin="round"/>
</svg>
